<svg xmlns:xlink="http://www.w3.org/1999/xlink" xmlns="http://www.w3.org/2000/svg" class="_1Axoi max-w-full fill-current" height="52.6" width="175.7" ><defs><symbol xmlns="http://www.w3.org/2000/svg" viewBox="0 0 175.7 52.6" id="logo-bmg_9b371479b3b8276e8817c515ab23a55a"><style>#logo-bmg_9b371479b3b8276e8817c515ab23a55a .st1{fill-rule:evenodd;clip-rule:evenodd}</style><path class="st1" d="M111.5 0L85 28.1 58.4 0h53.1zM175.5 52.6v-3.4H0v3.4h175.5z"></path><path class="st1" d="M23.5 21H0v2h1.2c1.1.3 3.2 1.4 3.2 4v9.8c0 2.6-2.2 3.8-3.2 4H0v1.7h34.5c6.3 0 13.3-1.8 13.3-6.2 0-4.3-6.6-5.8-8.8-5.8-.8 0-1.3-.8-.1-.8 1.3 0 6-1.4 6-4.4 0-3.1-4.9-4.4-7.9-4.4H23.5v.1zm0 18.7h-4c-1.3 0-2.2-1.4-2.2-2v-5.1c0-.5.8-.5 1.7-.5h9c.9 0 3.5.9 3.5 3.7 0 2.9-.9 3.9-3.5 3.9h-4.5zm0-10.1h-4.7c-.7 0-1.4.1-1.4-.3v-5.5c0-.4.7-.3 1.4-.3H26.6c.8 0 3 .7 3 3 0 2.4-2.2 3.1-3 3.1h-3.1zm94.1 10.7l1.4-.1c-.7-.1-2.6-.5-3.9-3.6-1.8-4.1-3.9-9.7-4.3-11.1-.3-1.4.9-2.8 1.8-2.8h.9v-1.9H97.8L85.6 34.3 73.9 20.8H56.7v1.9c1.5 0 3.6.1 2.8 2.5-.8 2.3-3.5 10.2-4.2 11.8-.7 1.3-1.8 3-3.4 3.3h-2.4v2.1h14.9v-2.1h-1.6s-3.5-.5-2.4-3.5c1.1-2.8 3.8-10.6 3.8-10.6l13.5 16h6.1L96.4 27s1.1 1.4 2.4 4.7c1.2 3.2 3.6 7.9 1 8.5H96v2.1h24v-2.1h-2.4v.1zm58.1-8.9h-23.5v2.1h3.2c2.2 0 3 1.4 3 2.4v2.9c0 2.1-5.8 1.5-9.1 1.5-12.6 0-13.8-4.9-13.8-8.1 0-5.5 6.8-10.1 15.4-10.1 14.7 0 16.6 5 16.6 5h3.4v-5.8h-2c-.9 0-1 .7-2.1.5-1.1-.2-12-1.8-16-1.8-7.6 0-29 1.1-29 11.6 0 10.6 18.5 11 27.5 11 21.7 0 21.9-1.6 21.9-2.6v-4.3c0-2.5 1.6-2.2 2.9-2.2h1.6v-2.1z"></path></symbol></defs><use xlink:href="#logo-bmg_9b371479b3b8276e8817c515ab23a55a"></use></svg>