<svg xmlns:xlink="http://www.w3.org/1999/xlink" xmlns="http://www.w3.org/2000/svg" class="_1Axoi max-w-full fill-current" height="102" width="66" ><defs><symbol xmlns="http://www.w3.org/2000/svg" viewBox="0 0 62 72" id="logo-amnesty_ae26e2059fd9b537bd5b1d1167b411b5">
<g>
	<path fill="#231F20" d="M40.526,40.123c-0.227-0.099-0.256-0.81-0.386-0.81c-0.197,0-0.298,0.647-0.68,0.743   c-0.394,0.067-0.976-0.42-1.141-0.294c-0.164,0.134,0.367,1.055-0.509,1.055c-0.262,0-0.396-0.298-0.396-0.524v-7.075   c0,0,0.03-0.01,0.422,0.087c0.258,0.067,0.518,0.195,0.518,0.554c0,0.191-0.069,0.582,0.063,0.649   c0.136,0.067,0.227-0.067,0.294-0.099c1.199-0.875,1.492,0.68,1.751,0.68c0.229,0,0.197-1.068,0.52-1.068   c0.262-0.101,2.76,1.102,2.76,1.883c0,0.162-0.327,0.191-0.355,0.357c-0.032,0.229,0.584,0.323,0.485,0.747   c-0.035,0.262-0.617,0.585-0.457,0.745c0.168,0.164,0.946-0.16,1.011-0.16c0.162,0,0.191,0.256,0.191,0.355   C44.617,39.378,41.276,40.45,40.526,40.123 M31.632,41.255c-0.195-0.319-0.099-0.873-0.292-0.873c-0.097,0-0.615,0.781-0.911,0.781   c-0.29,0-0.777-0.554-0.972-0.554c-0.13,0,0.13,0.781-0.13,1.102c-0.164,0.229-1.721,0.396-1.721,0.199V30.87   c0-0.518,0.392-0.714,0.745-0.714l5.811-0.002c0.712,0,1.005,0.225,1.005,0.972l0.006,9.908   C35.174,41.357,31.76,41.487,31.632,41.255 M35.172,55.249c0,0.684-0.231,0.844-0.812,0.716l-6.2-1.234   c-0.359-0.063-0.554-0.292-0.554-0.68V42.818c0-0.292,1.007-0.325,1.169-0.195c0.294,0.26,0.195,1.201,0.388,1.201   c0.262,0,0.942-1.137,1.236-1.137c0.617,0,1.037,0.357,1.167,0.294c0.132-0.067,0.132-0.585,0.292-0.716   c0.227-0.158,0.909-0.158,1.266-0.197c0.587-0.032,1.658-0.128,1.658-0.128c0.422,0,0.39,0.296,0.39,0.913V55.249z M28.484,22.657   c0-4.481,6.624-7.045,7.077-9.318c0.487,0.455,0.552,1.201,0.552,1.851c0,2.726-4.739,7.304-4.739,10.615   c0,0.359,0.032,0.453,0.032,0.682c0,0.323-0.13,0.39-0.193,0.39C30.429,26.878,28.484,25.35,28.484,22.657 M24.815,50.674   c-0.518,0-0.844-1.041-0.974-1.005c-0.162,0.034,0.035,0.875-0.162,1.005c-0.162,0.16-3.604-1.429-3.864-1.685   c-0.229-0.229,0.099-0.552,0-0.781c-0.065-0.195-0.587-0.132-0.745-0.231c-0.132-0.128,0.158-0.716-0.032-0.842   c-0.168-0.099-0.52,0.585-0.749,0.256c-0.101-0.13-0.128-0.355-0.128-0.647c0-1.981,2.107-2.791,3.538-3.278   c0.582-0.197,0.384,0.55,0.582,0.584c0.227,0.065,0.26-0.357,0.52-0.357c0.197,0,0.944,0.357,1.104,0.227   c0.13-0.097-0.388-0.584-0.227-0.779c0.197-0.162,1.703-0.446,1.689-0.059l0.004,6.937C25.373,50.747,24.815,50.674,24.815,50.674    M45.204,38.726c0.357-0.615,0.357-1.362,0.487-1.656c0.191-0.323,0.907-0.26,0.907-0.487c0-0.095-0.518-0.225-0.716-0.355   c-0.384-0.227-0.254-1.396-0.449-1.396c-0.296,0-0.587,0.81-0.881,0.455c-0.516-0.651-2.661-1.885-3.633-2.241   c-0.359-0.13,0.26-1.201,0.099-1.301c-0.164-0.097-0.585,0.653-1.202,0.522c-0.487-0.099-0.26-0.976-0.52-0.976   c-0.13,0-0.619,1.234-0.976,1.135c-0.39-0.097-0.905-0.237-0.905-0.237v-3.235c0-0.552-0.371-0.98-0.848-0.976h-3.507   c-0.974,0-0.909-0.714-0.909-0.877c0-4.317,6.267-5.031,6.267-10.679c0-2.468-1.557-4.124-3.375-5.587c-0.101-0.063,0,0.359,0,0.52   c0,2.63-9.774,3.994-9.774,10.065c0,5.289,5.261,5.516,5.261,6.33c0,0.162-0.323,0.227-0.357,0.227h-4.025   c-0.422,0-0.789,0.26-0.783,0.968l0.004,3.253c-0.392,0.13-0.909-0.455-1.171-0.455c-0.13,0-0.063,1.007-0.292,1.139   c-0.195,0.095-3.862,1.394-4.191,1.427c-0.515,0.097-0.384-0.812-0.676-0.812c-0.264,0-0.264,0.909-0.913,0.909   c-0.388,0-0.712-0.359-1.003-0.359c-0.195,0,0.42,0.749,0.42,0.974c0,0.619-1.199,0.844-1.199,1.268   c0,0.227,1.134-0.097,1.297-0.097c0.584,0,0.52,0.684,0.743,0.684c0.229,0,0.39-0.785,0.587-0.911   c0.386-0.227,0.844,0.162,1.039,0.162c0.323,0-0.26-0.781,0.034-0.911c0,0,3.956-1.685,4.219-1.557   c0.227,0.132,0.197,0.52,0.455,0.651c0.258,0.128,0.651-0.909,0.651-0.262v7.956c-0.457,0.288-1.431,0.455-1.952,0.455   c-0.256,0-0.13-0.846-0.292-0.846c-0.26,0-0.52,0.714-0.909,0.714c-0.357,0-0.875-0.875-1.23-0.875   c-0.227,0,0.418,1.102,0.03,1.297c-1.496,0.749-3.864,1.463-3.864,3.828c0,0.491,0.262,1.078,0.16,1.234   c-0.093,0.231-0.611,0.684-0.582,0.879c0,0.195,0.974,0.128,1.171,0.424c0.095,0.158,0.162,0.873,0.359,0.873   c0.158,0,0.58-0.55,0.94-0.357c1.133,0.684,3.113,1.427,4.025,1.92c0.223,0.13,0.095,0.842,0.223,0.907   c0.262,0.13,0.779-0.682,1.595-0.229c0.164,0.067,0.325,0.327,0.325,0.619l-0.004,2.655c0,0.487,0.225,0.615,0.487,0.68   l9.679,1.926c0,0,0.86,0.193,1.151,0.193c0.337,0.014,0.755-0.002,0.731-0.816l-0.004-6.034c0-0.061,0.077-0.209,0.207-0.209   c0.568-0.002,0.282,1.636,0.41,1.636c0.258,0,0.422-1.104,0.749-1.104c0.453,0,0.749,0.422,0.938,0.325   c0.164-0.097-0.093-0.619-0.093-0.944c0-0.29,0.84-0.42,1.881-0.81c0.909-0.321,1.656-0.68,1.95-0.68   c0.225,0,0.384,0.615,0.584,0.615c0.162,0,0.193-0.808,0.552-0.808c0.29,0,0.938,0.451,1.104,0.321   c0.128-0.095-0.325-0.714,0.03-0.976c0.262-0.162,0.877-0.548,0.877-0.712c0-0.097-1.201-0.132-1.266-0.132   c-0.227-0.063-0.487-0.777-0.653-0.777c-0.187,0-0.187,0.714-0.483,0.94c-0.262,0.193-0.909-0.682-1.199-0.682   c-0.166,0,0.191,0.651,0.191,1.173c0,0.516-3.146,1.524-3.568,1.524c-0.651,0-0.684-0.812-0.814-0.812   c-0.195,0-0.189,0.992-0.907,0.992c-0.359,0-0.487-0.268-0.487-0.461v-7.795c0-0.223,0.065-0.526,0.487-0.544   c0.534-0.024,0.548,1.185,0.743,1.185c0.357,0,0.554-1.201,1.234-1.201c0.52,0,0.942,0.716,1.268,0.716   c0.227,0-0.388-0.747-0.388-1.106C40.757,40.772,43.97,40.902,45.204,38.726"></path>
</g>
</symbol></defs><use xlink:href="#logo-amnesty_ae26e2059fd9b537bd5b1d1167b411b5"></use></svg>