<svg xmlns:xlink="http://www.w3.org/1999/xlink" xmlns="http://www.w3.org/2000/svg" class="_1Axoi max-w-full fill-current" height="28" width="146.6" ><defs><symbol xmlns="http://www.w3.org/2000/svg" viewBox="0 0 146.6 28" id="logo-nicethat_3b6fc6bf1e29ffe5acc2f724b19c6929"><path d="M146.6 11.2V8.1h-2.9V.4l-4.1 4.1v3l.6.5h-2.7v3.1h2.2v10.4c0 2.4.8 3.9 2 4.9 1.4 1.1 3 1.2 4.9 1.2V24c-1.9 0-2.9-.8-2.9-2.7V11.2h2.9zM94.1 4.3h4.5v23.4h4.3V4.3h4.6V.4H94.1v3.9zm22.6 2.9c-.7 0-1.5.2-2 .5-.4.2-.9.7-1.2 1.1V.4h-4.1v27.3h4.1V13.2c0-1.6.9-2.3 2-2.3s2 .8 2 2.3v14.5h4.1V13.2c0-2.3-.3-3.4-1.1-4.4-1.1-1.1-2.2-1.6-3.8-1.6zm12.9 0c-1.6 0-3.3.7-4.3 1.6-1.2 1.2-1.7 2.7-1.7 4.4h4.1c0-.8.2-1.4.6-1.9.3-.3.7-.6 1.4-.6 1.2 0 1.9.8 1.9 2.3v2.8h-1.8c-2.3 0-3.6.5-4.6 1.4-1.2 1.1-1.9 2.7-1.9 4.5 0 2 .4 3.6 1.2 4.5 1 1.2 2.1 1.7 3.8 1.7 1 0 1.7-.3 2.3-.7.5-.3.9-.8 1.2-1.4v1.7h3.8v-14c0-2.2-.7-3.7-1.8-4.7-.9-1.1-2.5-1.6-4.2-1.6zm2 14.6c0 1.6-.9 2.7-2.2 2.7-1.4 0-2.1-1-2.1-2.8 0-.8.3-1.8.8-2.3.6-.5 1.2-.6 2.1-.6h1.4v3zm-83.5-5.2L41.7.4h-3.8v27.3h4.3V11.5l6.5 16.2h3.8V.4h-4.3l-.1 16.2z"></path><circle cx="58" cy="2.4" r="2.4"></circle><path d="M56 8.1h4v19.6h-4V8.1zm14.7 15.6c-.3.4-.8.7-1.5.7-.6 0-1.2-.3-1.6-.8-.6-1-.6-3-.6-6s0-5 .6-5.9c.3-.5 1-.8 1.6-.8.7 0 1.1.3 1.5.7s.5 1.1.5 1.7h4c-.1-1.6-.5-3.4-1.8-4.6-1.2-1.1-2.5-1.4-4.3-1.4-1.9 0-3.6.5-4.8 2.1-1.2 1.8-1.4 4.9-1.4 8.3 0 3.4.1 6.6 1.4 8.3 1.2 1.6 2.9 2.1 4.8 2.1 1.8 0 3.3-.5 4.3-1.5 1.1-1.1 1.6-2.8 1.8-4.7h-4c0 .6-.1 1.3-.5 1.8zm17-14.9c-1.2-1.2-2.6-1.6-4.3-1.6-1.6 0-3.1.4-4.3 1.6-1.7 1.7-1.9 5.1-1.9 8.8s.1 7 1.9 8.8c1.2 1.2 2.5 1.6 4.4 1.6 1.8 0 3.3-.5 4.4-1.6 1.1-1.2 1.6-2.9 1.7-4.6h-4c0 .6-.2 1.4-.5 1.8-.4.5-.8.8-1.5.8s-1.2-.3-1.6-.8c-.5-.7-.6-2.5-.6-4.8h8.3c-.2-3.8-.1-7.9-2-10zm-6.5 7c0-2.1.1-3.6.6-4.2.3-.5.8-.8 1.5-.8s1.2.3 1.5.8c.5.6.6 2.1.6 4.2h-4.2zM0 .4h4.3v27.3H0V.4zm12.4 0L8.3 4.5v3l.6.5H6.2v3.1h2.2v10.4c0 2.4.8 3.9 2 4.9 1.4 1.1 3 1.2 4.9 1.2V24c-1.9 0-2.9-.8-2.9-2.7V11.2h2.9V8.1h-2.9V.4zm7.8 6.3V.5H17v10.2c.4-1.2 1.1-2.2 1.9-3 .5-.4.9-.7 1.3-1zm6.8 9.7l-2.7-1.1c-.7-.3-1.2-.7-1.5-1.1-.2-.3-.3-.7-.3-1.2 0-.6.2-1.1.6-1.5.3-.3.9-.6 1.5-.6.5 0 1 .2 1.4.6.4.4.6 1 .6 1.8h4c0-2-.7-3.4-1.7-4.5-1-1-2.6-1.5-4.3-1.5s-3.3.6-4.4 1.7c-1.1 1.1-1.8 2.4-1.8 4.3 0 1.1.2 2 .7 2.7.6.9 1.6 1.7 2.9 2.3l2.7 1.2a5 5 0 0 1 1.6 1.1c.3.5.4.9.4 1.5 0 .7-.2 1.2-.6 1.6-.5.4-.9.6-1.6.6-.5 0-1.1-.2-1.5-.6-.5-.5-.7-1.1-.7-1.9h-4c0 1.9.6 3.3 1.8 4.5 1 1.1 2.7 1.6 4.4 1.6s3.2-.4 4.4-1.6c1.1-1.1 1.8-2.5 1.8-4.5 0-1.4-.3-2.5-.8-3.3-.6-.9-1.5-1.5-2.9-2.1z"></path></symbol></defs><use xlink:href="#logo-nicethat_3b6fc6bf1e29ffe5acc2f724b19c6929"></use></svg>