<svg xmlns:xlink="http://www.w3.org/1999/xlink" xmlns="http://www.w3.org/2000/svg" class="_1Axoi max-w-full fill-current" height="175" width="727" ><defs><symbol xmlns="http://www.w3.org/2000/svg" viewBox="0 0 727 175" id="logo-dazed_f8e630148d75ef00a3a7c9f9bd6a45c9"><path d="M0 .7h111.4c29.8 0 43.1 10.1 43.1 37.6V133c0 32-11.6 42.1-43.1 42.1H0V.7m75.6 134.4c7.7 0 9.9-3.4 9.9-12.4V52.9c0-9-2.4-12.4-9.9-12.4H68v94.7h7.6zM238.5 39.6l7.1 59.2h-14.4l7.3-59.2M185.2.7L154.5 175h70.2l3.9-37.8h19.5L252 175h70.4L291.7.7H185.2zM330.6.7v39.7h42.5l-46.6 97.3V175h122.6v-39.7h-46.8l46.8-98.1V.7H330.6M455.1.7V175H565v-39.7h-41.8V99.2H565V59.5h-41.8V40.4H565V.7H455.1M571.7 175h111.4c31.6 0 43.1-10.1 43.1-42.1V38.3c0-27.5-13.3-37.6-43.1-37.6H571.7V175m68-39.9V40.4h7.5c7.5 0 9.9 3.4 9.9 12.4v69.8c0 9-2.1 12.4-9.9 12.4h-7.5z"></path></symbol></defs><use xlink:href="#logo-dazed_f8e630148d75ef00a3a7c9f9bd6a45c9"></use></svg>