<svg xmlns:xlink="http://www.w3.org/1999/xlink" xmlns="http://www.w3.org/2000/svg" class="_1Axoi max-w-full fill-current" height="79.42" width="269.14" ><defs><symbol xmlns="http://www.w3.org/2000/svg" viewBox="0 0 269.14 79.42" id="logo-vice_b1ada4179313c071b5d4ea6ae00ebb2a"><path d="M218.38 30.81c-.52.68-2.13.2-2.76.48.21-1.03 1.82-.44 2.76-.48zM143.74 49.17c8.38-.25 16.22-1.47 23.76-1.44-3.71 1.57-7.89 2.94-12.12 4.44s-8.5 3.35-12.84 3.24c-2.27-.06-5.5-.81-5.76-3-.36-3 2.13-5.56 3.84-7.68a53.93 53.93 0 0 1 6-6.12c-.69 3.31-2.07 6.97-2.88 10.56zM226.42 51.57c-2 1.24-4.86 1.57-7.68 1.92a63.06 63.06 0 0 1-11.76 0c5.13-1.85 13.19-1.49 19.44-1.92z" fill="#FFFFFF" fill-rule="evenodd"></path><path d="M156.58 23.25c-2.05 7-4.78 14.34-7 21.6 3.48-.08 7.48-.61 11.52-1 3.54-.31 8.27-.16 10.68-1.8 2-1.38 2.08-4.41 3.6-6.48.91 3.34 3.7 7.85 1.68 11-1.48 2.35-6.38 3.92-9.6 5-3.83 1.33-6.69 2.45-10.56 4-3.6 1.41-6.76 2.74-11.28 3.24-5.4.6-12.77-.49-13.44-5.76a10 10 0 0 1 1.32-5.4c2.18-4.5 5.63-8 8.76-11.28 2.25-2.33 4.54-4.56 6.84-6.6 2.55-2.15 5.08-4.34 7.48-6.52zm-10 15.36a53.93 53.93 0 0 0-6 6.12c-1.71 2.12-4.2 4.66-3.84 7.68.26 2.19 3.49 2.94 5.76 3 4.34.11 8.71-1.78 12.84-3.24s8.41-2.87 12.12-4.44c-7.54 0-15.38 1.19-23.76 1.44.85-3.59 2.23-7.25 2.92-10.56z" fill-rule="evenodd"></path><path d="M37.66 38c1.34-.77 2-2.32 2.64-3.6a21.92 21.92 0 0 0 1.92-4.32 19.27 19.27 0 0 0 .12-6.72c-.94-12 11.29-14.56 21.48-16.32a73.74 73.74 0 0 1 19.68-.23 13.88 13.88 0 0 0 2.64.36c.91-.13 2.38-1.51 3.24-2a19.39 19.39 0 0 1 6.84-2.88c3.26-.57 7.27-.08 10.92.6 10.4 1.94 21.44 4.54 29.64 8.16.16.73-1.21 2-1.68 2.88 7.87-4.26 15.27-8.7 24.36-11.4 8.33-2.48 18-2.87 26.4-.24a19.31 19.31 0 0 0 3.36 1.08c1.51.13 3.34-.46 5-.6 26.89-2.27 51.93 5.44 74.88 9.84a44.65 44.65 0 0 1-21 17.88c.94.92 2 1.26 2.76 2.16 2.07 2.45 1.9 6.64.48 9.48s-4.44 4.38-6 6.12c4.92-.29 9.78.61 10.44 5.16s-1.92 8.39-4.2 10.8c-7.23 7.61-19.82 10.11-32 12.6a130.32 130.32 0 0 1-26.28 2.64c-7.82.07-20-.64-23.4-5.64a7.64 7.64 0 0 1-1.08-3.72c-9.46 4.05-20.08 8.33-33 8.64-13.29.32-25.42-2.89-30-11.88-2.18 3.95-4.06 7.92-7.8 10.08-4.28 2.47-11.91 2.81-17.16 1.8-5.82-1.12-10.29-3.57-10.8-9.6S72 57.31 73.54 52.41c1.72-5.34 3.63-10.2 5.52-14.88-2.56 1.5-4.33 4.37-6.24 6.84A99.94 99.94 0 0 1 53 64.17a83 83 0 0 1-16.68 9.72c-5.59 2.33-14.77 5.53-21.72 2.76-2.41-1-4.78-3.56-3.6-6.84C11.66 68 13.87 67 14 65c.12-1.51-1.38-3.5-2.28-5A121.75 121.75 0 0 1 4.3 45.81c-2.62-6.37-5.83-15.37-3.48-23C3 15.74 9.07 11.52 15.1 8.13a91.14 91.14 0 0 1 15-6.6C33.22.44 38.66-1.4 41 1.77c3.33 4.47.45 13.15-.72 17.88A73 73 0 0 0 37.66 38zM108 6.81c-3.84-.75-8.12-1.46-11.76-.6a14.78 14.78 0 0 0-4.68 2.16c-1 .69-2.77 2.56-4.08 2.76-1.54.23-3.72-.43-5.64-.6-10.11-.9-19.42-.24-27.36 2.64-2.77 1-6.25 2.39-7.56 5-1.54 3.12.37 7.44-.12 11.4a16.53 16.53 0 0 1-1.92 5.16 55.67 55.67 0 0 1-5.64 8.52c-.8 1.07-2.54 3.41-4.08 3.12-1.07-.2-1.56-2.08-1.68-4.2-.53-9.32 1.77-17.14 3.36-25 .64-3.17 1.57-7.17 1.3-10.24-.2-2.27-1.22-3.2-3.12-3.12-3.15.13-7 2.34-10.08 3.6A54.81 54.81 0 0 0 16.18 12c-5.38 3.41-10.47 7.83-11.4 15.33-1 8 2.22 15 5 20.64a46.8 46.8 0 0 0 4.92 8.4c1.69 2.17 5.14 5.58 4.68 8.76-.33 2.33-5 4.69-4.2 7.08.42 1.22 3.18 1.54 5.64 1.56 7.21.06 12.71-2.74 17-4.92A86.25 86.25 0 0 0 55.3 57.09a115.41 115.41 0 0 0 14.64-14.52c4.39-5.29 8.07-11.18 12.6-16.68 3.24 8.77-.07 15.87-2.76 22.2a107 107 0 0 0-3.72 10.08c-1 3.3-2.54 8.23-1.56 11.88 1.27 4.74 8.35 5.6 13.92 5.16 4.17-.33 7.32-1.48 9.48-3.6 4.53-4.44 6.92-10.7 9.72-16.56-.59 8.15 2.73 12.94 8 15.84s12.18 4.2 19.92 4.2c15.53 0 27.25-5.87 36.84-11.16-.52 2.62-.67 5.51.36 7.44 2.07 3.89 7.57 4.18 13.56 4.68a94.87 94.87 0 0 0 10.32.36 125.85 125.85 0 0 0 21.84-2.52c9.68-1.91 20.05-4.79 27.36-9.6 2.47-1.62 5.18-3.74 5.76-6.6 1.65-8.11-8-5.71-13.2-4.56-4 .88-8 2.09-11.4 2.88-7.56 1.75-17.49 4-24.24 1-1-.47-2.53-1.23-2.52-2.76a4.4 4.4 0 0 1 1.8-2.76c2.48-1.94 6.59-2.44 10.92-2.76 10.74-.79 26.61.95 33-5.76 1.57-1.64 3.14-5.67 1.32-8.64-1.47-2.4-5.25-2.92-8.64-2.76-9.31.44-17.16 4.3-25.32 4.08-1.5 0-4.35 0-4.8-1.08-.56-1.32.83-3.28 1.56-4.2a8.94 8.94 0 0 1 3.24-2.88c1.85-.65 4.73-.27 7.32 0 7.83.81 15.73 1.52 22.2.36 8.23-1.48 13.8-5.86 18.36-10.8a5.58 5.58 0 0 0 1.68-2.28c-19.5-3.52-41.73-9.21-63.12-8.88a22.22 22.22 0 0 0-10 2c-2.32 1.21-5.62 4-5.16 7.2.28 1.91 2.77 3.31 4.56 4 2.28.83 4.65 1.15 6.6 2-5 .92-11.13 2.37-16.2 3.24 1-2.51 2.3-5 3.48-8 .79-2.08 2.66-6.58 2-9.24s-5.4-3.09-8.76-3.16A51.69 51.69 0 0 0 166.06 5c-19.29 4.1-34 14.66-46.56 25.08a98.5 98.5 0 0 1 9-15.6c.46-.68 1.19-1.52 1.08-2A149.47 149.47 0 0 0 108 6.81zm107.62 24.48c.63-.28 2.24.2 2.76-.48-.94.04-2.55-.55-2.76.48zM207 53.49a63.06 63.06 0 0 0 11.76 0c2.82-.35 5.71-.69 7.68-1.92-6.27.43-14.33.07-19.44 1.92z" fill-rule="evenodd"></path></symbol></defs><use xlink:href="#logo-vice_b1ada4179313c071b5d4ea6ae00ebb2a"></use></svg>